<?xml version="1.0" encoding="UTF-8"?>
<svg id="Layer_1" data-name="Layer 1" xmlns="http://www.w3.org/2000/svg" viewBox="0 0 710.15 549.67">
  <defs>
    <style>
      .cls-1 {
        fill: #f16037;
      }

      .cls-2 {
        fill: #194076;
      }
    </style>
  </defs>
  <path class="cls-2" d="M165.18,158.28c1.23-18.31,9.7-50.53-23.95-41.01-38.2,10.81-35.18,26.92-31.35,88.32,3.32,53.3-34.47,52.37-29.19,115.91,4.39,52.78,92.64-10.27,118.87-13.22,26.24-2.95,47.34,37.48,27.95,79.03-19.39,41.55-62.26,33.61-99.73,17.31-37.46-16.3-64.84,16.18-95.57,9.95S-5.03,349.2,3.35,320.13c8.38-29.07,59.59-79.93,40.64-154.44-19.02-74.77,9-88.65,29.78-104.58,20.78-15.93,49-14,68.55-20.2,40.41-12.8,42.88-33.86,77.41-26.04,34.53,7.82,8.09,46.75,13.63,100.08,5.54,53.33-29.37,70.72-46.06,67.2,0,0-23.36-5.55-22.13-23.86ZM352.35,324.7c1.07,63.13-33.6,76.73-60.07,79.71-26.48,2.98-49.6-8.56-41.04-62.59,8.56-54.03-1.61-80.25-11.77-116.09-10.16-35.84,19.79-50.33,10.3-113.74-9.49-63.41,16.89-95.58,42.5-97.47,42.11-3.1,61.78,44.42,63.42,67.83,1.64,23.41-9.77,48.68-14.05,83.99-4.28,35.31,9.63,95.23,10.7,158.35ZM312.23,272.81c-2.14-26.21-13.37-69.01-10.16-94.16,3.21-25.14,10.76-47.79,7.9-63.4s-6.7-15.76-13.37-13.15c-20.52,8.05-17,81.36-10.58,120.41,6.42,39.05-8.98,75.97,3.8,80.25,12.78,4.28,24.55-3.74,22.41-29.96ZM358.33,32.31c17.48,32.47,10.75,74.66,5.66,108.03-5.09,33.37-6.67,59.95,4.02,96.72,10.69,36.76,13.51,55.99,11.82,87.1-1.7,31.11.84,94.35,33.37,83.14,32.53-11.21,48.64-26.02,49.77-64.48,1.13-38.46-5.09-96.72,14.71-147.62,19.8-50.9,76.36-152.36,36.2-173.18-40.16-20.82-69.49,44.79-76.03,65.72s-14.46,45.25-15.03,88.8,3.31,91.3-9.9,84.02c-13.21-7.27-19.51-41.6-17.81-59.7s15.1-91.08,14.71-136.88c-.4-45.8-4.44-62.59-26.02-63.91-21.58-1.32-33.37,17.53-25.45,32.24ZM624.4,20.24c-17.97-2.02-38.54-4.05-52.9,9.17-19.3,17.76-20.57,45.31-31.67,67.36-11.83,23.49-20.66,48.35-29.46,73.14-2.97,8.35-5.93,16.7-8.9,25.06-9.44,26.58-19,53.25-22.28,81.43-3.44,29.64,2.45,58.99,5,88.41,1.12,12.88,8.02,25.07,18.48,32.68,13.89,10.1,26.42,7.7,42,4.64,10.56-2.07,21.27-3.41,32.05-3.51,18.3-.16,36.35,3.44,54.54,4.94,40.56,3.34,48.99-30.47,41.61-50.21-9.33-24.93-55.99-30.04-87.82-17.78-12.21,4.7-31.47,12.95-44.44,6.35-9.38-4.78-10.16-18.15-11.26-27.55-1.37-11.74-.61-23.73,2.32-35.18,4.22-16.53,14.01-31.84,31.97-34.11,16.39-2.06,32.58,3.3,48.85,4.14,51.17,2.65,46.05-39.77,27.67-44.91-24.05-6.73-71.82-2.7-71.82-21.83s0-19.13,11.11-48.7c14.8-39.41,7.94-56.61,33.46-60.86,25.51-4.25,71.73,39.85,93-3.33,9.19-18.66,2.47-36.65-10.33-42.77-12.81-6.12-35.84-2.6-71.15-6.57Z"/>
  <g>
    <circle class="cls-2" cx="191.28" cy="502.27" r="39.94"/>
    <circle class="cls-1" cx="284.33" cy="502.27" r="39.94"/>
    <g>
      <path d="M341.24,490.93v-20.48h1.26l9.51,16.41h-.67l9.48-16.41h1.23l.03,20.48h-1.46l-.03-18.23h.41l-8.98,15.5h-.73l-9.01-15.5h.44v18.23h-1.46Z"/>
      <path d="M379.36,491.08c-1.52,0-2.93-.26-4.23-.78-1.3-.52-2.43-1.25-3.39-2.19-.96-.95-1.71-2.05-2.24-3.31-.53-1.26-.79-2.63-.79-4.11s.26-2.85.79-4.11c.53-1.26,1.27-2.36,2.24-3.31.97-.95,2.1-1.68,3.39-2.19,1.3-.52,2.71-.78,4.23-.78s2.93.26,4.23.78c1.3.52,2.42,1.24,3.38,2.18.96.94,1.7,2.03,2.24,3.29s.8,2.64.8,4.14-.27,2.88-.8,4.14-1.28,2.35-2.24,3.29c-.96.94-2.08,1.66-3.38,2.18-1.3.52-2.71.78-4.23.78ZM379.36,489.7c1.31,0,2.52-.22,3.63-.67,1.11-.45,2.08-1.08,2.9-1.9s1.46-1.77,1.92-2.87c.46-1.09.69-2.28.69-3.57s-.23-2.5-.69-3.58-1.1-2.03-1.92-2.85-1.78-1.45-2.9-1.9c-1.11-.45-2.32-.67-3.63-.67s-2.52.22-3.63.67c-1.11.45-2.08,1.08-2.91,1.9-.83.82-1.47,1.77-1.93,2.85s-.69,2.28-.69,3.58.23,2.48.69,3.57c.46,1.09,1.1,2.05,1.93,2.87.83.82,1.8,1.45,2.91,1.9,1.11.45,2.32.67,3.63.67Z"/>
      <path d="M396.64,490.93v-20.48h1.26l14.6,18.64h-.67v-18.64h1.49v20.48h-1.23l-14.63-18.64h.67v18.64h-1.49Z"/>
      <path d="M425.84,490.93v-19.13h-7.37v-1.35h16.24v1.35h-7.37v19.13h-1.49Z"/>
      <path d="M444.86,491.08c-1.52,0-2.96-.26-4.32-.78-1.36-.52-2.4-1.18-3.14-2l.67-1.11c.7.72,1.66,1.33,2.88,1.83,1.22.5,2.51.75,3.88.75s2.48-.18,3.35-.54c.87-.36,1.51-.84,1.93-1.45.42-.6.63-1.28.63-2.02,0-.88-.23-1.58-.7-2.11-.47-.53-1.08-.95-1.84-1.26-.76-.31-1.59-.57-2.49-.79-.9-.21-1.8-.44-2.72-.69-.92-.24-1.75-.56-2.52-.95-.76-.39-1.37-.92-1.83-1.59-.46-.67-.69-1.55-.69-2.62,0-.97.25-1.87.76-2.69.51-.82,1.3-1.48,2.37-1.99,1.07-.51,2.45-.76,4.12-.76,1.13,0,2.25.17,3.35.5,1.1.33,2.04.78,2.82,1.35l-.56,1.2c-.86-.59-1.78-1.02-2.76-1.3-.99-.28-1.94-.42-2.85-.42-1.31,0-2.39.19-3.25.56-.86.37-1.49.86-1.9,1.48-.41.61-.61,1.3-.61,2.06,0,.88.23,1.58.69,2.11.46.53,1.07.95,1.83,1.26.76.31,1.6.58,2.52.79.92.21,1.82.44,2.72.69.9.24,1.73.56,2.49.95.76.39,1.38.92,1.84,1.58.47.66.7,1.52.7,2.57,0,.96-.26,1.85-.79,2.68-.53.83-1.33,1.49-2.41,1.99-1.08.5-2.47.75-4.17.75Z"/>
      <path d="M458.75,490.93v-20.48h13.69v1.35h-12.2v17.79h12.64v1.35h-14.13ZM460.07,481.19v-1.32h11.09v1.32h-11.09Z"/>
      <path d="M479.79,490.93v-20.48h7.34c2.57,0,4.59.6,6.06,1.81,1.46,1.21,2.19,2.91,2.19,5.09,0,1.42-.33,2.65-1,3.67-.66,1.02-1.61,1.81-2.84,2.37-1.23.56-2.7.83-4.42.83h-6.52l.67-.7v7.4h-1.49ZM481.28,483.62l-.67-.7h6.52c2.2,0,3.88-.49,5.02-1.46,1.14-.98,1.71-2.34,1.71-4.1s-.57-3.14-1.71-4.11c-1.14-.97-2.81-1.45-5.02-1.45h-6.52l.67-.73v12.55ZM494,490.93l-5.32-7.43h1.7l5.32,7.43h-1.7Z"/>
      <path d="M502.31,490.93v-20.48h7.34c2.57,0,4.59.6,6.06,1.81,1.46,1.21,2.19,2.91,2.19,5.09,0,1.42-.33,2.65-1,3.67-.66,1.02-1.61,1.81-2.84,2.37-1.23.56-2.7.83-4.42.83h-6.52l.67-.7v7.4h-1.49ZM503.8,483.62l-.67-.7h6.52c2.2,0,3.88-.49,5.02-1.46,1.14-.98,1.71-2.34,1.71-4.1s-.57-3.14-1.71-4.11c-1.14-.97-2.81-1.45-5.02-1.45h-6.52l.67-.73v12.55ZM516.53,490.93l-5.32-7.43h1.7l5.32,7.43h-1.7Z"/>
      <path d="M521.41,490.93l9.42-20.48h1.49l9.42,20.48h-1.61l-8.89-19.54h.64l-8.86,19.54h-1.61ZM524.87,485.17l.5-1.26h12.26l.5,1.26h-13.25Z"/>
      <path d="M549.82,490.93v-19.13h-7.37v-1.35h16.24v1.35h-7.37v19.13h-1.49Z"/>
    </g>
    <g>
      <path d="M340.54,536.23c-.66-.19-1.31-.47-1.97-.75-.23-.09-.47-.33-.7-.56-.19-.19-.28-.42-.14-.7l.19-.89.51-1.5.33-1.59c.19-.66.33-1.31.47-1.97.09-.28.28-.47.33-.8.09-.23.05-.51.14-.8.37-1.4.84-2.81,1.22-4.17.42-1.59.8-3.18,1.22-4.73l.7-2.67c.23-.89.47-1.78.75-2.72.19-.66.38-1.36.52-1.97v-.09c.42-1.22.66-2.53.98-3.75l1.87-6.51c.09-.19.14-.42.19-.61.09-.28.42-.33.61-.09.33.42.8.7,1.12,1.12.47.42.8.94,1.22,1.4.19.14.19.33.09.51-.14.47-.23.94-.42,1.4-.23.7-.51,1.45-.7,2.2l-.14.51c-.09.56-.37.98-.61,1.4-.05.09-.14.14-.23.23-.05.05-.05.09,0,.14.09.09.14.23.23.33-.19.28-.05.56-.19.84-.19.47-.23.94-.37,1.4-.19.84-.42,1.69-.7,2.48-.09.28-.09.61-.19.94-.19.84-.47,1.73-.66,2.57-.09.47-.14.89-.33,1.31-.09.23-.23,1.17-.28,1.45l.05.05s.09,0,.14-.05c.61-.8,1.5-2.2,2.06-3.09.14-.23.37-.52.66-.56.14-.09.23-.23.28-.37.05-.28.23-.52.42-.7l.14-.14c.61-.98,1.59-1.69,2.48-2.43.14-.09.28-.19.38-.33.33-.56.84-.89,1.31-1.31.33-.37.75-.56,1.22-.8.38-.14.61-.05.84.19.61.61,1.26,1.08,1.92,1.73.19.19.37.33.51.51.28.19.42.42.56.7.05.05.09.19.05.28.09.8-.09,1.54-.37,2.29l-.42,1.12c-.09.52-.33,1.03-.56,1.5-.33.52-.47,1.03-.75,1.5-.23.7-.37,1.5-.8,2.06-.14.19-.19.42-.28.61-.19.37-.37.75-.47,1.17,0,.09,0,.14-.05.23-.14.42-.42.75-.56,1.22-.05.47-.23.89-.47,1.31-.14.37-.28.8-.33,1.22-.14.8-.42,1.54-.51,2.34,0,.28-.14.52-.23.8-.14.47-.23.94-.33,1.4,0,.19,0,.37.05.56.14-.09.28-.19.42-.33.37-.42.7-.84,1.12-1.36.84-1.03,1.59-2.11,2.34-3.23.19-.23.33-.47.56-.75.14-.28.28-.56.47-.84.09-.14,1.12-1.78,1.26-1.87.38-.37.75-1.17,1.03-1.54.05-.09.14-.19.23-.28.09-.05.19-.09.28,0,.47.23.89.51,1.31.8.09.05.14.14.19.23.14.37.28.52.61.52.28.05.47.09.66.23.38.23.42.42.23.8-.09.19-.23.33-.37.47-.61.94-1.87,3.09-2.34,3.7,0,.05-.05.05-.05.09-.14.47-.52.84-.75,1.22l-.84,1.12c-.23.33-.47.61-.7.98-.23.37-.47.7-.8.98-.14.09-.28.23-.42.23-.33,0-.23.23-.33.52s-.33.42-.51.56c-.05.09-.14.14-.23.14-.33,0-.56.09-.66.42-.05.05-.09.05-.09.09-.61.7-1.26.84-2.15.56l-2.62-.98c-.98-.42-1.45-1.22-1.73-2.11-.05-.19-.05-.37-.05-.56,0-.56.09-1.08.09-1.64,0-.51.14-1.03.28-1.5l.7-2.62c.05-.37.23-.66.33-1.03.19-.75.51-1.4.66-2.2,0-.09,0-.14.05-.23l1.4-3.51c.14-.33.33-.66.37-.98.14-.28.33-.61.47-.94l.37-.89s0-.09-.05-.19c-.14-.05-.09.14-.19.14-.05.05-.14.09-.19.19-.09.14-.19.28-.38.33-.19.05-.23.14-.23.23-.05.37-.33.56-.52.84-.14.19-.33.33-.47.42-.23.37-.51.7-.7,1.12s-.61.7-.89,1.08c-.23.23-.42.47-.56.7-.09.14-.19.28-.33.37-.23.19-.42.42-.47.75s-.23.61-.47.75c-.28.19-.42.42-.56.61-.09.09-.14.19-.14.28-.23.98-.98,1.73-1.41,2.62-.05.09-.14.14-.19.23l-.94,1.69-.89,1.73c-.42.8-.75,1.64-1.17,2.39-.19.28-.33.66-.38.98-.14.37-.28.75-.37,1.12-.14.23-.19.52-.28.75-.05.23-.23.33-.47.28l-.56-.14Z"/>
      <path d="M361.61,536.56c-.7-.23-1.36-.47-2.06-.75-1.03-.42-1.73-1.45-1.83-2.57v-.75c0-.89.09-1.69.28-2.43,0-.09.05-.14,0-.23-.05-.52.09-.98.23-1.45.47-1.97,1.12-3.93,1.64-5.9.42-1.69.98-3.32,1.4-4.96.28-1.08.7-2.15.89-3.23.14-.75.42-1.45.61-2.2.09-.42.09-.84.23-1.26l.28-.94.14-.75c.05-.14.28-.14.38-.09.28.37.61.61.98.84.28.19.61.47.89.8s.66.56.89.89c.09.19.14.33.09.52-.14.56-.23,1.12-.47,1.64-.05.05-.05.09-.05.09.05.75-.33,1.45-.47,2.15-.14.7-.28,1.45-.47,2.11l-.7,2.67c-.09.56-.28,1.08-.42,1.64-.09.33-.19.61-.23.94-.14.75-.33,1.45-.47,2.2-.14.47-.51.98-.51,1.5,0,.19-.09.37-.14.51-.14.47-.28.94-.33,1.4-.09.61-.33,1.22-.42,1.83-.09.75-.38,1.5-.38,2.25,0,.05,0,.09.05.14h.14c.42-.33.8-.7,1.12-1.12.61-.75,1.03-1.45,1.54-2.29.19-.28.28-.61.47-.89.09-.19.19-.37.42-.51.14-.05.23-.23.23-.37.09-.61.42-1.03.7-1.54.66-1.31,1.03-2.34,1.69-3.51.33-.37.37-.84.66-1.22.09-.09.19-.14.28-.09.23.09.47.19.66.33.47.28.89.61,1.31.94.23.23.28.37.66.47.19.05.28.28.23.47-.09.33-.23.7-.42.89-.23.09-.23.33-.33.56-.28.66-.19,1.22-.61,1.78-.33.37-.61.75-.75,1.26-.05.19-.23.42-.38.61-.19.23-.33.47-.42.75-.09.37-.28.75-.52,1.08-.33.56-.42,1.08-.8,1.64-.47.75-.79,1.36-1.31,2.01-.33.37-.42.7-.84.98-.37.28-.8.61-1.12.89-.66.61-1.4.66-2.2.47l-.47-.14ZM366.38,505.01c-.19-.05-.37-.14-.51-.23-.47-.37-.94-.8-1.31-1.26-.37-.42-.37-.89-.23-1.36.05-.23.14-.42.23-.61.56-.89,1.12-1.83,1.78-2.67.33-.42.66-.8.98-1.17.09-.09.23-.09.28,0,.14.23.28.42.56.52.23.09.42.33.51.52.33.47.66.94,1.03,1.36.14.19.23.42.28.66-.09.19-.23.42-.42.56-.19.23-.28.47-.42.7-.09.19-.23.42-.37.61-.42.61-.75.94-1.12,1.59-.23.33.23,1.59-.28,1.4-.05.05-.89-.56-.98-.61Z"/>
      <path d="M372.04,548.73c-1.17-.42-2.34-.8-3.42-1.36-1.73-.84-2.95-2.15-3.65-3.93-.23-.66-.42-1.45-.14-2.48,0-.19,0-.33.05-.51.09-.33.09-.51.37-.8.19-.23.09-.56.38-.75.23-.19.19-.51.33-.75.42-.75.98-1.45,1.69-2.06.94-.8,1.87-1.59,3-2.11.33-.14.61-.37.94-.52.19-.14.33-.23.56-.28.14,0,.23-.05.33-.09.7-.56,1.54-.89,2.43-1.22.09,0,.14,0,.23-.05.42-.37.94-.51,1.4-.8.19-.09.38-.28.61-.37.37-.14.51-.47.56-.8.09-.42.14-.84.19-1.26.05-.14,0-.23,0-.42-.42.28-.75.56-1.12.8-.33.23-.61.52-1.03.61-.09,0-.19.09-.28.14-.56.47-1.22.56-1.87.66-.42.05-.84-.09-1.26-.28-.14-.05-.28-.09-.42-.19-.79-.56-1.59-1.12-2.39-1.64-.23-.19-.42-.37-.56-.61-.61-1.03-.89-2.11-.61-3.32v-.23c0-.8.14-1.59.28-2.34.19-.98.28-1.87.7-2.76.19-.56.47-1.4.75-1.92.05-.14.33-.8.47-.89.23-.19.38-.42.42-.75s.28-.56.47-.84c.09-.19.28-.37.42-.56.28-.61.7-1.08,1.12-1.59.05-.09.14-.19.23-.19.33-.05.47-.33.61-.56.37-.7.89-1.31,1.59-1.69.09-.09.23-.14.33-.23.38-.56,1.03-.66,1.59-.89.23-.09.47-.09.7,0,.23.05.42.09.66.09.56,0,1.03.23,1.45.61.42.37.84.75,1.22,1.17.56.56,1.08,1.12,1.59,1.73.37.37.61.84.66,1.4,0,.14,0,.23.05.33.09.28.09.51-.05.8-.05.14.05.37-.14.56-.33-.09-.61-.23-.89-.42-.47-.37-.94-.75-1.45-1.12-.33-.28-.42-.61-.56-.98-.05-.14,0-.28.05-.37.05-.19.05-.33.05-.47-.05-.09-.09-.19-.19-.19-.19,0-.37,0-.56.05-.42.09-.84.23-1.22.56-.42.37-.84.8-1.5.89-.09.05-.23.19-.23.33.05.37-.19.61-.42.89-.51.61-.98,1.22-1.45,1.87-.28.37-.51.8-.84,1.17-.09.09-.42.7-.47.89l-.42.84c-.56,1.08-.7,2.15-.98,3.32-.09.28-.19.8-.23,1.03s-.28.23-.37.42c-.05.14-.09.28,0,.37.19.14.19.23.14.42-.19.56-.33,1.17-.28,1.78,0,.05.05.09.05.14,0,.14.14.23.28.19.52-.19.98-.37,1.45-.7.42-.28.66-.56,1.03-.94.61-.56,1.22-1.12,1.78-1.73l.56-.7c.33-.56.75-1.03,1.03-1.64.14-.33.28-.61.33-.98l.23-1.69c.14-.42.37-.89.42-1.36l.14-.47c.14-.33.47-.51.8-.37.14.05.33.14.42.23.51.37,1.08.7,1.54,1.17.23.19.52.37.75.61.14.09.19.23.19.42-.05.14,0,.98-.05,1.12-.14.23-.14.52-.14.8-.05.09,0,.14-.05.23-.05.28-.28.51-.23.84.05.28,0,.52,0,.8s-.05.56-.14.84c-.14.33.14.56.09.89-.05.19,0,.37-.05.56-.09.28-.09.56-.09.89-.05.23-.14.47-.14.7-.05.05,0,.14,0,.23.09.05.14,0,.19-.05.61-.61,1.22-1.22,1.78-1.83.37-.37.75-.84,1.08-1.26.28-.33.56-.56.75-.98.09-.19.23-.37.38-.61.37-.42.56-.56.98.09.33.47.75.7,1.22.98.09.05.23.05.28.14.19.28.52.47.75.7.19.19.23.37.19.56-.14.42-.37.75-.66,1.08-.19.23-.42.52-.61.8-.14.14-.23.33-.38.42-.89.89-1.59,1.83-2.53,2.62l-.42.47c-.51.56-1.17.98-1.78,1.45-.14.14-.33.23-.56.28q-.51.19-.84.56c-.09.09-.19.23-.33.28-.28.14-.33.37-.38.66s-.09.56-.09.84c-.09.66-.19,1.31-.33,1.92-.33,1.59-.66,2.48-1.03,4.07l-.14.61c-.19.42-.28.89-.33,1.36-.05.51-.23.98-.42,1.45-.09.28-.23.52-.33.8-.23.66-.51,1.22-.84,1.73l-.37.66c-.47.66-.94,1.31-1.64,1.73-.42.28-.84.37-1.31.42-.7.09-1.41.05-2.06-.19ZM372.28,545.97c.94-.84,1.5-1.97,2.06-3.04.38-.7.61-1.45.84-2.2.19-.61.33-.56.56-1.17.05-.09.05-.23.09-.33l.14-.84c.23-1.12.51-2.2.8-3.37-.38.05-.66.19-.89.33-.28.14-.56.28-.8.42-.61.33-1.22.61-1.78.98-.38.23-.75.51-1.17.7-.33.14-.56.37-.8.66l-.61.7c-.37.37-.7.8-.98,1.22-.42.66-.75.66-1.08,1.4-.05.09-.14.19-.14.28,0,.37-.05.7-.14,1.03-.05.19-.05.37,0,.56.09.28.09.56.09.8.09.98.47,1.83,1.08,2.57.09.09.23.19.37.19.89,0,1.64-.28,2.34-.89Z"/>
      <path d="M385.43,536.23c-.66-.19-1.31-.47-1.97-.75-.23-.09-.47-.33-.7-.56-.19-.19-.28-.42-.14-.7l.19-.89.51-1.5.33-1.59c.19-.66.33-1.31.47-1.97.09-.28.28-.47.33-.8.09-.23.05-.51.14-.8.38-1.4.84-2.81,1.22-4.17.42-1.59.8-3.18,1.22-4.73l.7-2.67c.23-.89.47-1.78.75-2.72.19-.66.38-1.36.52-1.97v-.09c.42-1.22.66-2.53.98-3.75l1.87-6.51c.09-.19.14-.42.19-.61.09-.28.42-.33.61-.09.33.42.8.7,1.12,1.12.47.42.8.94,1.22,1.4.19.14.19.33.09.51-.14.47-.23.94-.42,1.4-.23.7-.51,1.45-.7,2.2l-.14.51c-.09.56-.37.98-.61,1.4-.05.09-.14.14-.23.23-.05.05-.05.09,0,.14.09.09.14.23.23.33-.19.28-.05.56-.19.84-.19.47-.23.94-.37,1.4-.19.84-.42,1.69-.7,2.48-.09.28-.09.61-.19.94-.19.84-.47,1.73-.66,2.57-.09.47-.14.89-.33,1.31-.09.23-.23,1.17-.28,1.45l.05.05s.09,0,.14-.05c.61-.8,1.5-2.2,2.06-3.09.14-.23.37-.52.66-.56.14-.09.23-.23.28-.37.05-.28.23-.52.42-.7l.14-.14c.61-.98,1.59-1.69,2.48-2.43.14-.09.28-.19.38-.33.33-.56.84-.89,1.31-1.31.33-.37.75-.56,1.22-.8.38-.14.61-.05.84.19.61.61,1.26,1.08,1.92,1.73.19.19.37.33.51.51.28.19.42.42.56.7.05.05.09.19.05.28.09.8-.09,1.54-.37,2.29l-.42,1.12c-.09.52-.33,1.03-.56,1.5-.33.52-.47,1.03-.75,1.5-.23.7-.37,1.5-.8,2.06-.14.19-.19.42-.28.61-.19.37-.38.75-.47,1.17,0,.09,0,.14-.05.23-.14.42-.42.75-.56,1.22-.05.47-.23.89-.47,1.31-.14.37-.28.8-.33,1.22-.14.8-.42,1.54-.51,2.34,0,.28-.14.52-.23.8-.14.47-.23.94-.33,1.4,0,.19,0,.37.05.56.14-.09.28-.19.42-.33.37-.42.7-.84,1.12-1.36.84-1.03,1.59-2.11,2.34-3.23.19-.23.33-.47.56-.75.14-.28.28-.56.47-.84.09-.14,1.12-1.78,1.26-1.87.38-.37.75-1.17,1.03-1.54.05-.09.14-.19.23-.28.09-.05.19-.09.28,0,.47.23.89.51,1.31.8.09.05.14.14.19.23.14.37.28.52.61.52.28.05.47.09.66.23.38.23.42.42.23.8-.09.19-.23.33-.37.47-.61.94-1.87,3.09-2.34,3.7,0,.05-.05.05-.05.09-.14.47-.52.84-.75,1.22l-.84,1.12c-.23.33-.47.61-.7.98s-.47.7-.8.98c-.14.09-.28.23-.42.23-.33,0-.23.23-.33.52s-.33.42-.51.56c-.05.09-.14.14-.23.14-.33,0-.56.09-.66.42-.05.05-.09.05-.09.09-.61.7-1.26.84-2.15.56l-2.62-.98c-.98-.42-1.45-1.22-1.73-2.11-.05-.19-.05-.37-.05-.56,0-.56.09-1.08.09-1.64,0-.51.14-1.03.28-1.5l.7-2.62c.05-.37.23-.66.33-1.03.19-.75.51-1.4.66-2.2,0-.09,0-.14.05-.23l1.4-3.51c.14-.33.33-.66.37-.98.14-.28.33-.61.47-.94l.37-.89s0-.09-.05-.19c-.14-.05-.09.14-.19.14-.05.05-.14.09-.19.19-.09.14-.19.28-.38.33-.19.05-.23.14-.23.23-.05.37-.33.56-.52.84-.14.19-.33.33-.47.42-.23.37-.51.7-.7,1.12s-.61.7-.89,1.08c-.23.23-.42.47-.56.7-.09.14-.19.28-.33.37-.23.19-.42.42-.47.75s-.23.61-.47.75c-.28.19-.42.42-.56.61-.09.09-.14.19-.14.28-.23.98-.98,1.73-1.4,2.62-.05.09-.14.14-.19.23l-.94,1.69-.89,1.73c-.42.8-.75,1.64-1.17,2.39-.19.28-.33.66-.38.98-.14.37-.28.75-.37,1.12-.14.23-.19.52-.28.75-.05.23-.23.33-.47.28l-.56-.14Z"/>
      <path d="M408.65,535.81c-.89-.42-1.83-.84-2.67-1.31-.66-.33-1.22-.84-1.59-1.5-.19-.33-.42-.66-.56-1.03-.19-.56-.28-1.12-.28-1.69,0-.42-.05-.84.05-1.26.09-.7.05-1.36.23-2.01.05-.33.05-.7.14-1.03.09-.37.19-.75.33-1.08.05-.19.09-.37.09-.56-.05-.33.05-.7.09-1.03.14-.61.28-1.26.56-1.83.05-.09.09-.23.09-.33.19-1.08.61-2.06.98-3.04.42-1.26,1.08-2.48,1.59-3.7.09-.19.19-.33.33-.47.19-.23.37-.42.37-.75,0-.14.14-.28.23-.42.42-.56.8-1.08,1.17-1.64l.09-.14c.61-.56,1.17-1.17,1.97-1.5.66-.28,1.31-.14,1.97.09.42.19.75.47,1.12.75.8.66,1.54,1.36,2.34,1.97.51.42.8.89.8,1.54v.14c.33.75.05,1.45,0,2.15-.28.61-.33,1.31-.7,1.87-.33.47-.56,1.03-.79,1.59-.19.33-.33.66-.56.94-.14.19-.33.42-.42.61-.09.33-.38.56-.56.8-.38.47-.7.94-1.12,1.4-.33.33-.61.75-1.03.98-.14.05-.23.14-.28.28-.28.37-.66.61-1.03.89-.14.09-.28.09-.47.05-.8-.33-1.54-.75-2.29-1.17-.14-.05-.23-.14-.38-.19-.05,0-.19,0-.19.09-.09.23-.19.52-.23.75-.09.28-.09.61-.23.89-.14.47-.23.98-.23,1.5-.05.47-.14.98-.28,1.5-.09.56-.23,1.08-.19,1.64v.84c0,.52-.05,1.03,0,1.54.09.84.23.94,1.08.7.42-.09.75-.28,1.12-.47l.7-.42c.19-.09.33-.23.52-.37.42-.47.89-.89,1.4-1.31.51-.47,1.03-.98,1.5-1.5.42-.42.7-.89,1.08-1.36.42-.47.84-.89,1.26-1.4.37-.47.56-.94,1.03-1.4.23-.23.42-.51.61-.84.56-.8,1.03-1.4,1.59-2.15.42-.56.89-1.31,1.31-1.92.19-.23.28-.23.51-.05.14.05.23.14.33.23.23.23.51.37.79.56.38.23.47.33.89.61.28.14.38.28.61.47.14.09.14.14,0,.33-.23.28-.28.66-.51.89-.14.09-.23.37-.33.42-.19.19-.19.42-.33.7-.09.23-.23.47-.42.66l-.14.19c-.38.8-.84,1.45-1.45,2.06-.23.51-.38.89-.8,1.26-.56.61-.89,1.26-1.45,1.83-.19.19-.33.33-.52.47-.19.09-.37.09-.51.23-.09.09-.09.33-.23.42-.23.14-.37.33-.37.66,0,.09-.09.19-.19.23-.94.94-1.83,1.83-2.86,2.62-.56.47-1.26.75-1.97.94-.38.14-.8.09-1.17.05-.51-.14-1.08-.23-1.54-.47ZM409.3,522.33s.05-.05.05-.05c.84-.8,1.87-1.36,2.43-2.34l.28-.42c.47-.61.84-1.31,1.17-2.01.23-.47.47-.89.75-1.36.61-.98.8-2.25.89-3.42,0,0-.09-.19-.14-.19-.05-.05-.09,0-.14,0h-.09c-.84.56-1.54,1.22-2.06,2.06-.75,1.26-1.54,2.53-2.15,3.93-.14.42-.38.8-.51,1.17-.19.42-.28.89-.47,1.4-.05.28-.19.61-.33.98-.05.05-.14.33-.09.37.09.09.33-.09.42-.14Z"/>
      <path d="M424.47,537.17l-2.72-.56c-.89-.23-1.59-.56-2.25-1.22s-.98-1.45-1.31-2.34c-.09-.23-.23-.47-.33-.75-.19-.61-.37-1.78-.37-2.29,0-.56.09-.66.19-.98.23-.84.7-1.4,1.12-2.11.05-.09.09-.09.19-.19.14-.14.28-.23.37-.37.7-.8.89-.94,1.69-1.59.19-.14.33-.28.47-.42-.05-.09-.09-.14-.19-.23l-1.36-.7c-.23-.14-.42-.23-.56-.51-.19-.28-.23-.56-.09-.89.37-.8,1.17-2.25,1.54-3,.28-.52.56-1.08.8-1.59.23-.47.47-.84.7-1.26.33-.52.66-1.12.89-1.64.23-.56.47-.98.7-1.4.38-.66.7-1.12,1.03-1.73.19-.28.47-.56.61-.89.05-.23-.19-1.03,0-1.69.19-.7.23-1.22.61-1.87.14-.23.28-.51.42-.7.51-.7.66-.7,1.4-.23.56.33,1.5.94,1.92,1.45.19.23.42.42.66.61.23.19.28.42.19.75l-.14.37c-.37.75-.98,2.39-1.26,3.18-.05.09-.05.19-.05.28.05.33.09.61.05.94-.05.19,0,.37,0,.61.05.28.05.56.05.84-.05.28.09.56.14.89l.14.94.28,1.92c.09.8.38,1.83.56,2.62.09.23.19.33.42.33.61,0,1.22.37,1.59.42.09,0,.23.05.33.14.61.42,1.17.8,1.73,1.22.23.14.28.37.47.56.19.14.42.23.56.37.05.05.09.09.09.14,0,.09-.05.09-.14.05l-1.36-.28c-.61-.19-1.17-.28-1.83-.28h-.42c-.56.09-.66.19-.52.84.05.33.14.8.09,1.17,0,.37.05.8.14,1.08.09.66.05,1.22.09,1.83,0,.28,0,.47.09.7.05.05.05.14,0,.23-.09.28-.09.52-.09.84,0,.19-.14.33-.23.51-.09.14-.19.28-.14.47,0,.28-.05.47-.09.75-.19.61-.47,1.08-.75,1.64-.09.23-.23.51-.38.66l-.38.47c-.51.7-1.17,1.12-1.92,1.5-.19.09-.37.19-.61.23s-.47.09-.7.19c-.14.05-.28.09-.42.09-.56-.05-1.17.05-1.73-.09ZM423.3,535.44c.47-.09.94-.28,1.31-.47.98-.61,1.73-1.54,2.25-2.48.52-.94.75-1.64,1.08-2.62.19-.61.28-1.17.33-1.87v-3.09l-.19-.14s-.09,0-.14.05c-1.54.7-2.95,1.5-4.17,2.67-.19.19-.33.33-.52.47-.28.23-.51.47-.75.75-.19.33-.37.66-.7.84-.14.09-.19.28-.23.42l-.09.51c-.19.8-.14,1.54.05,2.39,0,.09.05.19.05.33s.05.33.14.47c.09.14.19.28.23.42l.51.98c.05.19.19.33.33.42.19.09.37-.05.51-.05ZM424.61,522.66c.51-.23,1.17-.47,1.87-.61.42-.05.8-.14,1.26-.19.09,0,.14-.19.14-.28s0-.14-.05-.19c-.33-1.45-.66-3.42-.94-4.87,0-.05,0-.28-.05-.33-.05,0-.14.05-.14.09-.47.8-1.03,2.15-1.45,3-.14.19-.23.42-.47.51-.09.09-.14.19-.14.28-.05.51-.19.89-.47,1.36-.28.42-.42.94-.66,1.4,0,.05-.09.23-.05.28,0,.05.05.09.09.05.37-.23.75-.42,1.03-.51Z"/>
      <path d="M436.03,536.04c-1.03-.23-1.78-.89-2.25-1.83-.33-.7-.7-1.5-.8-2.29-.05-.05-.05-.14-.05-.23,0-.98-.05-1.97.14-2.95.09-.66.14-1.36.28-2.01.05-.37.09-.8.23-1.17.23-.8.33-1.64.66-2.39.09-.19.14-.33.14-.51.05-.42.14-.8.28-1.17.19-.8.28-1.54.56-2.25.05-.05.09-.14.09-.19-.05-.47.14-.89.28-1.36.28-1.22.66-2.43.98-3.65.23-.7.47-1.73.8-2.43.09-.19,0-.33-.19-.33-.61-.05-.37-.09-.98-.09-.28,0-.56-.05-.84-.19-.61-.33-.84-.51-1.45-.89-.19-.14-.42-.37-.66-.56-.09-.14-.09-.23-.14-.37,0-.09,0-.23.14-.28.23-.09.51-.14.75-.14.56.09.7.05,1.26.14.66.05.51-.05,1.17-.05.52-.05,1.08-.09,1.59-.19.19,0,.33-.09.38-.28l.23-.66c.09-.33.14-.66.28-.94.33-.84.33-1.5.66-2.39.05-.56.23-1.03.42-1.59l.23-.66c.09-.47.19-.94.33-1.45v-.23c.09-.33.14-.66.33-.94.38,0,.56.28.84.52.14.09.23.23.42.28.47.19.94.37,1.22.8.28.05.47.28.66.42.09.14.14.28.14.47-.14.47-.19.98-.33,1.5-.14.56-.09.09-.19.66-.19.89-.19,1.5-.61,2.34,0,.09-.05.19-.09.28-.05.42-.09.84-.28,1.26,0,.09.09.23.19.23.19,0,.33,0,.47-.05.47-.19.94-.42,1.4-.66.23-.19.42-.14.7-.05.47.23.94.47,1.36.8.37.33.79.56,1.08.94.14.09.23.23.23.42s-.09.37-.23.52c-.19.05-.33.19-.47.28-.7.28-1.4.47-2.15.37-.33-.05-.7.05-1.03.14-.09,0-.23.05-.33,0-.7.23-1.31.19-1.92.19-.19,0-.28.14-.33.28-.09.33-.23.42-.23.8-.05.28-.23.94-.38,1.26l-.28.89-.23.75-.47,1.26c-.05.14-.09.28-.09.42.05.66-.28,1.26-.42,1.92,0,.14-.05.28-.09.47-.05.52-.19.98-.37,1.45-.05.14-.05.23-.05.37-.05.37-.14.7-.33,1.03-.05.14-.09.23-.09.37-.19.84-.47,1.73-.7,2.57-.19.42-.19.89-.28,1.31-.05.42-.09.89-.23,1.36-.19.56-.28,1.17-.37,1.73-.05.28-.09.56-.05.89l-.14,2.11c-.05.37,0,.8.14,1.17.05-.05.14-.05.19-.09.47-.37.94-.84,1.26-1.36.33-.37.51-.75.94-1.03.05-.05.09-.19.14-.23.19-.47.52-.94.75-1.31.47-.84.94-1.69,1.4-2.48.33-.66.75-1.22,1.17-1.87.14-.14.19-.37.33-.51.14-.56.47-1.03.8-1.5l1.12-1.92c.05-.09.09-.19.14-.19.05-.05.19-.09.23-.09.23.14.47.14.7.19.14,0,.28.05.38.14.42.14.61.33.94.61.23.23.42.37.8.33l.19.14c.38.09.47.23.28.56-.33.66-.66,1.26-1.03,1.87-.42.66-.89,1.45-1.26,2.15l-1.08,2.01s-.09.14-.19.19c-.42.42-.61.94-.84,1.45-.28.8-.75,1.4-1.22,2.06-.42.66-.79,1.22-1.26,1.78-.23.28-.61.47-.75.84,0,0,0,.05-.05.05-.51.19-.75.66-1.22.94-.51.33-1.12.47-1.73.28-.7-.23-1.36-.42-2.06-.56Z"/>
      <path d="M449.88,543.54c-.09-.05-.23-.09-.33-.19-.61-.52-.89-.8-.56-1.59.23-.56.38-1.12.56-1.73.28-.94.56-1.92.75-2.86.23-1.4,1.03-4.17,1.45-5.52.37-1.17.7-2.25,1.17-3.37.28-.7.47-1.5.75-2.29.09-.23.14-.47.23-.66.23-.42.33-.84.37-1.31.05-.42.19-.84.28-1.26.28-.84.42-1.78.7-2.67.33-1.03.51-1.97.8-2.95.14-.52.19-1.03.33-1.54.28-.94.37-1.87.75-2.86.14-.37.23-.8.28-1.17.05-.51.23-.94.42-1.45,0-.09.05-.23.09-.28.19-.19.23-.37.23-.61,0-.37.19-.75.28-1.08.09-.19.37-.23.56-.09.23.19.38.51.56.66.14.09.23.14.38.14.28,0,.51.09.7.23.47.33.89.61,1.36.98.09.05.19.14.14.28-.14.47-.28.98-.61,1.36l-.14.33c.05.56-.14,1.12-.38,1.64-.05.28-.14.56-.23.84-.05.19-.05.42.05.66.14,0,.23-.14.33-.23l1.97-2.67c.09-.09.14-.19.23-.19.61-.37,1.08-.8,1.64-1.22.42-.33.98-.42,1.54-.14,1.08.7,2.2,1.36,3.23,2.11.37.28.7.61.84,1.08.14.33.09.61.14.94.05.28,0,.61.09.94.05.19.33.37.28.56-.19.42-.14.84-.33,1.26-.05.09-.05.19-.05.33,0,.37-.09.66-.47.84-.05.05-.09.14-.05.19.28.28.42.66.33.94-.19.75-.75,2.43-.94,3.18-.28,1.12-.75,2.25-1.17,3.32-.09.42-.28.84-.51,1.17-.23.28-.23.66-.33.98-.09.23-.14.52-.28.75l-.28.61c-.09.37-.33.75-.56,1.12-.28.33-.42.66-.61,1.03-.28.66-.66,1.22-1.31,1.59-.19.05-.28.23-.38.37-.14.28-.42.37-.66.52-.42.23-1.31.47-1.83.52-.7.05-1.26.09-1.83-.14-.84-.33-1.64-.61-2.39-.98-.28-.05-.51-.19-.75-.37-.19-.05-.23-.33-.42-.23-.28,0-.33.28-.42.51l-.8,2.53c-.05.33-.23.66-.33.98-.38,1.36-.8,2.67-1.17,4.03-.23.84-.47,1.69-.8,2.53-.09.19-.19.37-.23.52-.09.14-.19.19-.38.09-.8-.28-1.59-.61-2.34-.98ZM459.01,532.44c.51-.19,1.45-.52,1.87-.98.84-.8,1.59-1.59,1.97-2.72v-.09c.42-.61.7-1.31.98-1.97.14-.52.37-1.03.61-1.54.75-1.64,1.5-4.31,2.06-5.9.19-.51.09-.89.19-1.4.09-.56.28-1.12.42-1.73.09-.47-.14-.94-.09-1.4.05-.05.05-.14.05-.14-.05-.05-.14-.05-.14,0-.42.23-.7.61-1.08.84-.14,0-.23.09-.28.23-.09.23-.28.42-.51.61-.33.23-.56.56-.75.94l-.14.28-1.5,1.87c-.42.56-1.26,2.01-1.54,2.62-.23.47-.47.94-.8,1.31-.23.28-.42.61-.61.94-.05.09-.09.19-.09.28,0,.28-.19.52-.28.75-.28.75-.66,1.45-.94,2.25-.09.23-.19.47-.42.61-.14.05-.19.23-.23.42l-.14.66-.09.28c0,.28.05.42.23.51s.28.23.42.28c.23.14.28.28.28.47l-.05.42c-.05.42.09.8.14,1.17.05.19.19.28.37.19t.09-.05Z"/>
      <path d="M470.43,535.39c-.23-.09-.47-.19-.61-.28-.42-.28-.75-.7-.66-1.22l.23-1.36c.14-.84.33-2.39.66-3.18.05-.8.33-1.54.51-2.29l1.03-3.46c.19-.66.37-1.36.7-2.01l.14-.52c.14-.56.28-1.12.47-1.69.09-.37.28-.7.42-1.08.14-.19.28-.42.28-.66-.05-.52.14-.98.37-1.45.14-.23.19-.52.28-.75.05-.42.23-.8.38-1.22.42-1.4.7-2.76.98-4.17.05-.19.09-.37.23-.51s.23-.19.42-.14c.19.14.42.19.56.37.19.19.37.33.61.42.23.14.47.23.61.47.23.28.33.28.56.51.14.19.23.33.23.61,0,.14-.19,1.22-.05,1.45.33-.33,1.03-1.36,1.26-1.73.23-.28.47-.47.75-.7.19-.28.47-.42.56-.75.75-.75,1.5-1.45,2.53-1.73.61-.14,1.17,0,1.73.09.09,0,.19.09.28.19l1.03.8c.19.14.38.28.56.47.09.05.19.14.19.23.05.28.42.23.51.51l.14.42c-.61,0-1.17-.09-1.59.09-.51.19-.94.52-1.36.94-.28.28-.66.56-1.03.84-.33.28-.56.7-.8.98-.28.33-.47.66-.75.98-.19.19-.38.42-.7.47-.23,0-.23.05-.23.33.05.23-.09.37-.19.52-.19.28-.47.47-.56.7l-.47.61c-.33.47-.61.98-.98,1.45-.51.8-.89,1.59-1.4,2.34-.42.8-.7,1.64-1.22,2.29-.14.14-.19.28-.23.47-.09.42-.14.89-.47,1.31-.14.52-.42.98-.56,1.54-.09.33-.23.61-.38.89-.14.19-.23.47-.33.7-.42,1.36-.8,3.37-1.26,4.63-.23.7-.42,1.5-.56,2.2-.33,1.08-.42.8-1.22.56-.56-.14-1.08-.37-1.64-.51Z"/>
      <path d="M484.62,535.11c-.94-.61-1.59-1.45-1.97-2.48-.23-.56-.42-1.12-.37-1.73,0-.05-.05-.14-.14-.14v-.19c.28-.19.37-.42.23-.75-.09-.28-.14-.56-.05-.8.14-.61.19-1.22.33-1.83.09-.56.19-1.17.33-1.73.14-.66.37-1.36.51-2.01.42-1.59.98-3.14,1.59-4.63.19-.37.33-.7.47-1.03.14-.47.33-.84.61-1.22.05-.14.14-.23.19-.37.38-1.08,1.12-1.97,1.69-2.9.23-.37.47-.7.7-1.03.52-.7,1.12-1.36,1.78-1.97.56-.56,1.17-1.08,1.97-1.36.56-.23,1.08-.23,1.69-.19.05.05.14.09.23.09,1.03,0,1.83.56,2.53,1.22.75.7,1.4,1.4,2.11,2.11.52.51.75.98.89,1.69v.33c-.05.89-.14,1.73-.66,2.43-.09.09-.14.23-.23.37-.05.09-.19.09-.23,0-.14-.09-.23-.23-.33-.33-.14-.19-.28-.33-.51-.37-.56-.23-1.08-.51-1.5-.94-.09-.14-.23-.23-.33-.37-.14-.28-.19-.51-.05-.84l.42-1.12c.09-.33.23-.66.19-1.03,0-.09-.05-.19-.19-.19-.56-.09-1.03.05-1.54.33-.28.14-.61.33-.84.56-.56.56-1.12,1.12-1.69,1.64l-.23.28c-.52.75-1.03,1.54-1.54,2.34l-.33.42c-.19.23-.28.52-.42.8-.09.14-.14.33-.28.47-.19.23-.33.52-.42.8-.23.66-.56,1.26-.89,1.87-.14.33-.28.66-.33.98-.19.66-.47,1.22-.7,1.78-.05.14-.14.23-.14.33,0,.61-.23,1.12-.37,1.73-.28,1.03-.51,2.11-.7,3.18-.14.61-.14,1.26-.23,1.87-.14.56-.09,1.17-.09,1.73-.05.14-.05.23,0,.33.05.23-.05.61.28.7.19.09.42-.19.56-.33.89-.8,1.73-1.59,2.39-2.57l.98-1.54c.28-.56.56-1.12.75-1.69.33-.8.56-1.64.89-2.43.19-.61.38-1.17.61-1.73.23-.61.51-1.08.61-1.69.23-.94.8-2.53,1.12-3.42,0-.09.09-.19.14-.28.19-.33.28-.37.61-.14.14.09.28.19.42.23.56.28,1.03.66,1.5,1.08l.84.66c.19.19.23.42.14.66t-.05.09c-.47.75-.98,2.2-1.12,3.04-.09.52-.23,1.08-.42,1.54-.28.8-.47,1.59-.56,2.43-.05.61-.14,1.17-.19,1.78-.05.23-.14.47-.19.7-.05.09-.09.19-.09.28.05.75-.05,1.5-.05,2.25.05.05.14.14.19.09t.09-.05c.94-.66,1.4-1.5,2.01-2.48.33-.52.7-.94,1.03-1.45.23-.75.84-1.5,1.12-2.34.61-1.83,1.31-2.86,1.78-3.89.09-.33.19-.61.42-.89.09-.05.19-.09.28-.05.19.09.37.14.56.28.8.47,1.54.98,2.34,1.45.23.19.33.37.23.66-.14.42-.79,1.64-.94,2.11-.14.33-.28.66-.38.98-.14.37-.33.8-.51,1.17l-.61,1.12c-.19.42-.42.75-.66,1.12-.28.56-.52.98-.75,1.59-.52.61-.89,1.36-1.45,1.97-.56.51-1.12,1.08-1.83,1.4-.61.28-1.22.28-1.83.14-.61-.14-.84-.42-1.4-.7-.42-.23-.89-.42-1.36-.66-.14-.09-.28-.19-.42-.23-.23-.09-.33-.37-.61-.37-.14.14-.23.33-.38.52-.23.23-.42.47-.7.61-.14.09-.28.23-.38.33-.28.37-.61.61-.94.89-.14.09-.28.19-.38.28-.61.37-1.22.42-1.87.14-1.03-.42-2.06-.89-3-1.5Z"/>
      <path d="M503.15,536.56c-.7-.23-1.36-.47-2.06-.75-1.03-.42-1.73-1.45-1.83-2.57v-.75c0-.89.09-1.69.28-2.43,0-.09.05-.14,0-.23-.05-.52.09-.98.23-1.45.47-1.97,1.12-3.93,1.64-5.9.42-1.69.98-3.32,1.4-4.96.28-1.08.7-2.15.89-3.23.14-.75.42-1.45.61-2.2.09-.42.09-.84.23-1.26l.28-.94.14-.75c.05-.14.28-.14.38-.09.28.37.61.61.98.84.28.19.61.47.89.8s.66.56.89.89c.09.19.14.33.09.52-.14.56-.23,1.12-.47,1.64-.05.05-.05.09-.05.09.05.75-.33,1.45-.47,2.15-.14.7-.28,1.45-.47,2.11l-.7,2.67c-.09.56-.28,1.08-.42,1.64-.09.33-.19.61-.23.94-.14.75-.33,1.45-.47,2.2-.14.47-.51.98-.51,1.5,0,.19-.09.37-.14.51-.14.47-.28.94-.33,1.4-.09.61-.33,1.22-.42,1.83-.09.75-.38,1.5-.38,2.25,0,.05,0,.09.05.14h.14c.42-.33.8-.7,1.12-1.12.61-.75,1.03-1.45,1.54-2.29.19-.28.28-.61.47-.89.09-.19.19-.37.42-.51.14-.05.23-.23.23-.37.09-.61.42-1.03.7-1.54.66-1.31,1.03-2.34,1.69-3.51.33-.37.37-.84.66-1.22.09-.09.19-.14.28-.09.23.09.47.19.66.33.47.28.89.61,1.31.94.23.23.28.37.66.47.19.05.28.28.23.47-.09.33-.23.7-.42.89-.23.09-.23.33-.33.56-.28.66-.19,1.22-.61,1.78-.33.37-.61.75-.75,1.26-.05.19-.23.42-.38.61-.19.23-.33.47-.42.75-.09.37-.28.75-.52,1.08-.33.56-.42,1.08-.8,1.64-.47.75-.79,1.36-1.31,2.01-.33.37-.42.7-.84.98-.37.28-.8.61-1.12.89-.66.61-1.4.66-2.2.47l-.47-.14ZM507.93,505.01c-.19-.05-.37-.14-.51-.23-.47-.37-.94-.8-1.31-1.26-.37-.42-.37-.89-.23-1.36.05-.23.14-.42.23-.61.56-.89,1.12-1.83,1.78-2.67.33-.42.66-.8.98-1.17.09-.09.23-.09.28,0,.14.23.28.42.56.52.23.09.42.33.51.52.33.47.66.94,1.03,1.36.14.19.23.42.28.66-.09.19-.23.42-.42.56-.19.23-.28.47-.42.7-.09.19-.23.42-.37.61-.42.61-.75.94-1.12,1.59-.23.33.23,1.59-.28,1.4-.05.05-.89-.56-.98-.61Z"/>
      <path d="M515.14,537.17l-2.72-.56c-.89-.23-1.59-.56-2.25-1.22s-.98-1.45-1.31-2.34c-.09-.23-.23-.47-.33-.75-.19-.61-.37-1.78-.37-2.29,0-.56.09-.66.19-.98.23-.84.7-1.4,1.12-2.11.05-.09.09-.09.19-.19.14-.14.28-.23.37-.37.7-.8.89-.94,1.69-1.59.19-.14.33-.28.47-.42-.05-.09-.09-.14-.19-.23l-1.36-.7c-.23-.14-.42-.23-.56-.51-.19-.28-.23-.56-.09-.89.37-.8,1.17-2.25,1.54-3,.28-.52.56-1.08.8-1.59.23-.47.47-.84.7-1.26.33-.52.66-1.12.89-1.64.23-.56.47-.98.7-1.4.38-.66.7-1.12,1.03-1.73.19-.28.47-.56.61-.89.05-.23-.19-1.03,0-1.69.19-.7.23-1.22.61-1.87.14-.23.28-.51.42-.7.51-.7.66-.7,1.4-.23.56.33,1.5.94,1.92,1.45.19.23.42.42.66.61.23.19.28.42.19.75l-.14.37c-.37.75-.98,2.39-1.26,3.18-.05.09-.05.19-.05.28.05.33.09.61.05.94-.05.19,0,.37,0,.61.05.28.05.56.05.84-.05.28.09.56.14.89l.14.94.28,1.92c.09.8.38,1.83.56,2.62.09.23.19.33.42.33.61,0,1.22.37,1.59.42.09,0,.23.05.33.14.61.42,1.17.8,1.73,1.22.23.14.28.37.47.56.19.14.42.23.56.37.05.05.09.09.09.14,0,.09-.05.09-.14.05l-1.36-.28c-.61-.19-1.17-.28-1.83-.28h-.42c-.56.09-.66.19-.52.84.05.33.14.8.09,1.17,0,.37.05.8.14,1.08.09.66.05,1.22.09,1.83,0,.28,0,.47.09.7.05.05.05.14,0,.23-.09.28-.09.52-.09.84,0,.19-.14.33-.23.51-.09.14-.19.28-.14.47,0,.28-.05.47-.09.75-.19.61-.47,1.08-.75,1.64-.09.23-.23.51-.38.66l-.38.47c-.51.7-1.17,1.12-1.92,1.5-.19.09-.37.19-.61.23s-.47.09-.7.19c-.14.05-.28.09-.42.09-.56-.05-1.17.05-1.73-.09ZM513.97,535.44c.47-.09.94-.28,1.31-.47.98-.61,1.73-1.54,2.25-2.48.52-.94.75-1.64,1.08-2.62.19-.61.28-1.17.33-1.87v-3.09l-.19-.14s-.09,0-.14.05c-1.54.7-2.95,1.5-4.17,2.67-.19.19-.33.33-.52.47-.28.23-.51.47-.75.75-.19.33-.37.66-.7.84-.14.09-.19.28-.23.42l-.09.51c-.19.8-.14,1.54.05,2.39,0,.09.05.19.05.33s.05.33.14.47c.09.14.19.28.23.42l.51.98c.05.19.19.33.33.42.19.09.37-.05.51-.05ZM515.28,522.66c.51-.23,1.17-.47,1.87-.61.42-.05.8-.14,1.26-.19.09,0,.14-.19.14-.28s0-.14-.05-.19c-.33-1.45-.66-3.42-.94-4.87,0-.05,0-.28-.05-.33-.05,0-.14.05-.14.09-.47.8-1.03,2.15-1.45,3-.14.19-.23.42-.47.51-.09.09-.14.19-.14.28-.05.51-.19.89-.47,1.36-.28.42-.42.94-.66,1.4,0,.05-.09.23-.05.28,0,.05.05.09.09.05.37-.23.75-.42,1.03-.51Z"/>
      <path d="M528.71,535.81c-.89-.42-1.83-.84-2.67-1.31-.66-.33-1.22-.84-1.59-1.5-.19-.33-.42-.66-.56-1.03-.19-.56-.28-1.12-.28-1.69,0-.42-.05-.84.05-1.26.09-.7.05-1.36.23-2.01.05-.33.05-.7.14-1.03.09-.37.19-.75.33-1.08.05-.19.09-.37.09-.56-.05-.33.05-.7.09-1.03.14-.61.28-1.26.56-1.83.05-.09.09-.23.09-.33.19-1.08.61-2.06.98-3.04.42-1.26,1.08-2.48,1.59-3.7.09-.19.19-.33.33-.47.19-.23.38-.42.38-.75,0-.14.14-.28.23-.42.42-.56.8-1.08,1.17-1.64l.09-.14c.61-.56,1.17-1.17,1.97-1.5.66-.28,1.31-.14,1.97.09.42.19.75.47,1.12.75.8.66,1.54,1.36,2.34,1.97.51.42.8.89.8,1.54v.14c.33.75.05,1.45,0,2.15-.28.61-.33,1.31-.7,1.87-.33.47-.56,1.03-.8,1.59-.19.33-.33.66-.56.94-.14.19-.33.42-.42.61-.09.33-.38.56-.56.8-.38.47-.7.94-1.12,1.4-.33.33-.61.75-1.03.98-.14.05-.23.14-.28.28-.28.37-.66.61-1.03.89-.14.09-.28.09-.47.05-.8-.33-1.54-.75-2.29-1.17-.14-.05-.23-.14-.38-.19-.05,0-.19,0-.19.09-.09.23-.19.52-.23.75-.09.28-.09.61-.23.89-.14.47-.23.98-.23,1.5-.05.47-.14.98-.28,1.5-.09.56-.23,1.08-.19,1.64v.84c0,.52-.05,1.03,0,1.54.09.84.23.94,1.08.7.42-.09.75-.28,1.12-.47l.7-.42c.19-.09.33-.23.52-.37.42-.47.89-.89,1.4-1.31.51-.47,1.03-.98,1.5-1.5.42-.42.7-.89,1.08-1.36.42-.47.84-.89,1.26-1.4.37-.47.56-.94,1.03-1.4.23-.23.42-.51.61-.84.56-.8,1.03-1.4,1.59-2.15.42-.56.89-1.31,1.31-1.92.19-.23.28-.23.51-.05.14.05.23.14.33.23.23.23.52.37.8.56.38.23.47.33.89.61.28.14.38.28.61.47.14.09.14.14,0,.33-.23.28-.28.66-.51.89-.14.09-.23.37-.33.42-.19.19-.19.42-.33.7-.09.23-.23.47-.42.66l-.14.19c-.38.8-.84,1.45-1.45,2.06-.23.51-.38.89-.8,1.26-.56.61-.89,1.26-1.45,1.83-.19.19-.33.33-.52.47-.19.09-.37.09-.51.23-.09.09-.09.33-.23.42-.23.14-.37.33-.37.66,0,.09-.09.19-.19.23-.94.94-1.83,1.83-2.86,2.62-.56.47-1.26.75-1.97.94-.38.14-.8.09-1.17.05-.51-.14-1.08-.23-1.54-.47ZM529.37,522.33s.05-.05.05-.05c.84-.8,1.87-1.36,2.43-2.34l.28-.42c.47-.61.84-1.31,1.17-2.01.23-.47.47-.89.75-1.36.61-.98.8-2.25.89-3.42,0,0-.09-.19-.14-.19-.05-.05-.09,0-.14,0h-.09c-.84.56-1.54,1.22-2.06,2.06-.75,1.26-1.54,2.53-2.15,3.93-.14.42-.37.8-.51,1.17-.19.42-.28.89-.47,1.4-.05.28-.19.61-.33.98-.05.05-.14.33-.09.37.09.09.33-.09.42-.14Z"/>
    </g>
  </g>
</svg>