<?xml version="1.0" encoding="UTF-8"?>
<svg id="Layer_1" data-name="Layer 1" xmlns="http://www.w3.org/2000/svg" viewBox="0 0 266.61 266.61">
  <defs>
    <style>
      .cls-1 {
        fill: #f8f4eb;
      }

      .cls-2 {
        fill: #1f1bee;
      }
    </style>
  </defs>
  <circle class="cls-1" cx="133.3" cy="133.3" r="133.3"/>
  <path class="cls-2" d="M211.85,133.39c14.35-1.86,25.16-13.34,25.16-27.35,0-20.09-21.11-34.13-39.68-34.13h-49.99c-2.28-.1-5.17-.14-8.32-.14-5.41,0-11.66.09-16.66.14h-2.87c-.06,0-.11.01-.17.02-.55,0-1.08,0-1.57,0-1.18,0-2.19.84-2.19,1.35,0,.68.67,1.01,1.85,1.01h1.18c1.18,0,2.53.17,3.71.84,2.2,1.35,4.22,4.73,4.22,10.3,0,4.73-2.36,8.78-5.57,12.16l-17.39,18.24c-2.37-9.29-18.74-44.07-33.09-44.07,0,0-.17,0-27.69.17-4.22,0-5.4.51-5.57,1.69-.17,2.2,9.79,1.35,9.79,10.81-.17,11.48-3.38,21.95-7.09,34.28-6.08,19.75-10.81,37.48-10.81,55.72,0,12.66,1.52,19.75,13.51,19.75,6.08,0,8.95-1.18,8.95-7.77,0-6.92-4.56-12.66-6.25-19.25-2.2-8.27-3.04-16.55-3.04-24.99,0-5.74.17-11.65,1.35-17.22,2.7-12.49,6.08-24.48,7.43-36.81,7.09,7.09,7.93,17.73,7.93,26.68,0,11.31-1.01,22.79-1.01,34.11,0,15.2,3.55,34.45,16.21,43.39,3.04,2.2,7.6,2.2,10.98,2.2,10.81,0,14.69-4.73,14.69-14.52,0-6.76-.34-13.51-.34-20.09,0-12.32,1.18-24.31,8.61-35.29,6.08-11.48,16.21-24.82,22.29-33.43.84,2.53,1.35,5.4,1.35,8.61,0,6.92-2.2,15.53-7.94,26.34-6.58,12.66-10.64,28.7-10.64,43.22,0,6.77,1,12.62,4.13,16.94.91,1.3,2.01,2.41,3.27,3.36.99.75,2.1,1.41,3.34,1.99,5.27,2.49,12.1,3.21,18.86,3.21h2.19c12.5,0,22.96-.17,26-5.91,11.48,4.9,12.66,5.91,21.27,5.91,3.38,0,11.99-.17,20.43-.17,16.55,0,24.31-12.33,24.82-25.66v-1.86c0-12.49-5.06-22.96-25.66-33.77ZM167.44,75.31c15.7,0,22.46,17.9,22.46,31.57,0,5.74-1.69,17.9-9.79,17.9-2.19,0-5.74-.51-7.09-2.53,1.18-5.23,1.69-10.47,1.69-15.87,0-10.98-3.04-21.78-9.96-30.56.84-.34,2.19-.51,2.7-.51ZM190.91,171.38c-.51,8.27-4.73,11.99-10.13,11.99-2.53,0-5.4-.84-8.27-2.36,0-1.01-.68-5.4-.84-6.25-1.18-6.42-3.04-13-3.04-23.13v-.84c0-5.4,0-12.49,2.7-19.42,11.82,4.56,19.58,22.96,19.58,39v1.01Z"/>
</svg>