<?xml version="1.0" encoding="UTF-8"?>
<svg id="Layer_1" data-name="Layer 1" xmlns="http://www.w3.org/2000/svg" viewBox="0 0 1366.67 146.39">
  <path d="M28.87,77.5c0-11.31,1.01-22.79,1.01-34.11,0-8.95-.84-19.59-7.93-26.68-1.35,12.32-4.73,24.31-7.43,36.81-1.18,5.57-1.35,11.48-1.35,17.22,0,8.44.84,16.71,3.04,24.99,1.69,6.58,6.25,12.33,6.25,19.25s-2.87,7.77-8.95,7.77c-11.99,0-13.51-7.09-13.51-19.75,0-18.24,4.73-35.96,10.81-55.72,3.71-12.33,6.92-22.79,7.09-34.28C17.9,3.55,7.93,4.39,8.1,2.19c.17-1.18,1.35-1.69,5.57-1.69,27.52-.17,27.69-.17,27.69-.17,14.35,0,30.73,34.78,33.09,44.07l17.39-18.24c3.21-3.38,5.57-7.43,5.57-12.16,0-5.57-2.03-8.95-4.22-10.3-1.18-.67-2.53-.84-3.71-.84h-1.18c-1.18,0-1.86-.34-1.86-1.01,0-.51,1.01-1.35,2.19-1.35,5.24,0,14.02-.17,21.27-.17,6.42,0,11.82.17,13,.67,12.83,5.74,18.07,32.25,18.07,45.25,0,2.36,0,7.09-2.7,29.21v7.77l2.87,23.13c0,10.3-4.73,16.21-15.7,16.21h-21.11c-15.03,0-20.26-11.31-20.26-24.65,0-14.52,4.05-30.56,10.64-43.22,5.74-10.81,7.94-19.42,7.94-26.34,0-3.21-.51-6.08-1.35-8.61-6.08,8.61-16.21,21.95-22.29,33.43-7.43,10.98-8.61,22.96-8.61,35.29,0,6.59.34,13.34.34,20.09,0,9.79-3.88,14.52-14.69,14.52-3.38,0-7.94,0-10.98-2.2-12.66-8.95-16.21-28.2-16.21-43.39Z"/>
  <path d="M176.95,60.95c11.65,0,16.55,6.75,24.14,13.68.51-.34.68-.68,3.88-8.78l3.72-9.46c.68-2.03,1.52-5.91,1.52-7.6,0-8.1-5.91-16.04-14.35-16.04-9.29,0-14.52,10.47-19.59,16.21-4.05,4.73-16.55,14.18-23.64,14.18-.68,0-.85-.34-.85-.84,0-1.35.85-2.87,1.35-4.05,3.38-8.61,8.44-14.69,8.44-24.31v-1.18c0-1.52.17-2.87,2.36-3.21,44.91-.34,45.08-.34,45.08-.34h.84c1.52,0,4.05.17,5.91,1.01,13,6.08,18.91,17.22,18.91,29.55,0,6.92-1.86,13.84-3.71,20.6-1.18,4.39-2.87,8.61-2.87,13.34,0,8.27,10.81,8.61,10.81,16.55s-5.74,12.33-13.51,12.33c-4.39,0-6.41.34-9.45.34-7.26,0-13.85-1.86-20.09-14.01-7.26,6.25-14.18,13.68-24.48,13.68-14.01-1.18-21.1-13.51-21.1-26,0-16.71,7.6-35.63,26.68-35.63ZM186.24,99.96c8.27,0,9.96-10.47,11.14-17.22.17-.68.17-1.18.17-1.69,0-5.23-5.06-7.43-9.29-7.77-6.58,0-8.27,8.95-8.27,13.84,0,4.22.34,12.83,6.25,12.83Z"/>
  <path d="M242.64,105.7c0-7.09.67-15.2,14.35-59.6,2.03-6.42,2.7-12.33,2.7-18.91,0-13.17-3.21-22.46-17.05-24.65-.51,0-.84-.68-.84-1.18s.17-.84.84-.84h25.83c1.01,0,3.21,1.86,3.88,2.53,9.79,8.95,13.34,21.61,13.34,34.44-.84,14.35-4.56,23.98-4.56,32.59,0,7.6,3.21,15.53,4.56,22.79.51,2.53.34,7.77.51,10.3v.67c0,8.78-5.74,18.4-15.7,18.4h-14.18c-7.43,0-13.68-10.81-13.68-16.55Z"/>
  <path d="M293.96,31.91c-.68-.17-1.01,0-1.01-1.69,0-.85.84-1.01,1.18-1.01h18.06c2.03,0,2.87,0,3.38.51,10.3,9.29,15.37,18.74,15.37,32.42v8.95c0,5.91-.34,11.82-.34,17.56,0,6.58,2.87,11.99,2.87,18.4,0,8.27-4.73,15.19-13.68,15.19h-16.55c-6.58,0-9.29-6.75-9.29-14.01,0-24.99,11.99-32.93,12.66-55.89,0-7.6-1.52-18.23-12.66-20.43ZM310.34,0c7.09,0,11.99,6.25,11.99,12.83,0,3.55-1.86,6.75-5.74,6.75-2.03,0-3.72-.84-5.74-.84-3.04,0-5.74,2.87-8.61,2.87-4.22-.17-6.42-5.91-6.42-9.46,0-8.78,6.42-12.16,14.52-12.16Z"/>
  <path d="M372.31,39.51c9.45-7.26,18.4-10.47,26.34-10.47,18.91,0,32.59,16.55,32.59,39.85v2.03c-.17,4.9-.85,9.79-1.01,14.86v.68c0,10.3,6.75,17.39,6.75,23.98,0,10.47-7.43,11.48-15.53,11.48h-6.25c-13,0-18.91-2.36-22.79-15.7-.68-2.53-1.01-5.4-1.01-8.44,0-15.2,9.96-34.78,9.96-49.3,0-7.26-4.05-13.34-12.16-13.34-2.87,0-14.86,5.4-14.86,7.6,3.55,6.25,5.57,15.2,5.57,23.98,0,5.07-.51,9.96-.51,14.86,0,7.43,2.2,12.16,2.2,19.59,0,13.34-4.39,21.11-18.91,21.11h-.84c-7.09,0-16.21,0-19.25-7.77-1.69-3.38-2.36-6.75-2.36-10.3,0-15.2,11.99-33.26,13.51-54.2v-2.53c0-8.95-4.73-15.53-12.83-16.55,0,0-.51,0-.51-.67,0-.17,0-1.01.68-1.01h20.6c2.36,0,4.39,2.2,5.74,3.72l4.9,6.58Z"/>
  <path d="M517.86,123.42h-2.19c-14.02,0-28.37-3.04-28.37-18.74.17-36.13,20.26-49.98,20.26-80.37,0-10.47-2.53-21.61-15.37-21.61-.34,0-.68-.51-.68-1.01s.17-1.01.84-1.01h77.84c18.57,0,39.68,13.85,39.68,33.94,0,14.01-10.81,25.5-25.16,27.35,20.6,10.81,25.66,21.27,25.66,33.77v1.86c-.51,13.34-8.27,25.66-24.82,25.66-8.44,0-17.05.17-20.43.17-8.61,0-9.79-1.01-21.27-5.91-3.04,5.74-13.51,5.91-26,5.91ZM552.98,53.35c8.1,0,9.79-12.16,9.79-17.9,0-13.68-6.76-31.57-22.46-31.57-.51,0-1.86.17-2.7.51,6.92,8.78,9.96,19.59,9.96,30.56,0,5.4-.51,10.64-1.69,15.87,1.35,2.03,4.9,2.53,7.09,2.53ZM553.65,111.94c5.4,0,9.62-3.71,10.13-11.99v-1.01c0-16.04-7.77-34.44-19.58-39-2.7,6.92-2.7,14.01-2.7,19.42v.84c0,10.13,1.86,16.72,3.04,23.13.17.85.84,5.24.84,6.25,2.87,1.52,5.74,2.36,8.27,2.36Z"/>
  <path d="M618.83,82.4c0-5.74,1.01-11.65,3.21-17.39,8.61-22.29,27.35-36.47,52.34-36.47,16.71,0,36.64,13.17,36.64,31.41,0,5.23-2.37,8.95-7.77,8.95s-9.96-3.04-15.53-3.04c-9.29,0-24.65,10.64-28.87,18.74-1.69,3.21-2.53,6.25-2.53,9.79,0,8.95,8.1,16.72,16.71,16.72,16.72,0,29.55-12.83,35.46-27.35,1.52-3.71,1.86-6.25,2.87-10.47.17-.34.34-.68.67-.68.17,0,.51.17.51.85,0,17.39-9.62,33.94-24.82,42.55-7.93,4.56-16.55,6.25-26,6.25-16.71,0-30.05-2.7-37.99-18.74-3.21-6.42-4.89-13.51-4.89-21.11ZM656.65,78.85c6.08-6.42,10.47-9.12,14.35-12.49,5.57-4.9,11.48-13.68,11.48-21.61,0-6.25-4.9-11.82-11.82-11.82-11.82,0-16.04,13-16.04,22.29,0,7.26,1.01,14.18,2.03,23.64Z"/>
  <path d="M751.38,39.51c9.45-7.26,18.4-10.47,26.34-10.47,18.91,0,32.59,16.55,32.59,39.85v2.03c-.17,4.9-.85,9.79-1.01,14.86v.68c0,10.3,6.75,17.39,6.75,23.98,0,10.47-7.43,11.48-15.53,11.48h-6.25c-13,0-18.91-2.36-22.79-15.7-.68-2.53-1.01-5.4-1.01-8.44,0-15.2,9.96-34.78,9.96-49.3,0-7.26-4.05-13.34-12.16-13.34-2.87,0-14.86,5.4-14.86,7.6,3.55,6.25,5.57,15.2,5.57,23.98,0,5.07-.51,9.96-.51,14.86,0,7.43,2.2,12.16,2.2,19.59,0,13.34-4.39,21.11-18.91,21.11h-.84c-7.09,0-16.21,0-19.25-7.77-1.69-3.38-2.36-6.75-2.36-10.3,0-15.2,11.99-33.26,13.51-54.2v-2.53c0-8.95-4.73-15.53-12.83-16.55,0,0-.51,0-.51-.67,0-.17,0-1.01.68-1.01h20.6c2.36,0,4.39,2.2,5.74,3.72l4.9,6.58Z"/>
  <path d="M822.8,68.89c0-20.26,14.01-39.85,40.86-39.85h1.86c14.18.51,28.03,5.23,37.99,15.7,5.57-6.58,8.44-13.68,18.74-13.68,8.61,0,12.83,9.12,12.83,16.55,0,8.61-5.57,17.56-15.2,17.56-6.58,0-9.12-4.9-11.48-7.94,0,7.43-.51,15.03-4.9,26.51-6.42,16.55-23.64,23.13-40.86,23.13-9.96,0-20.94-3.38-27.86-8.78-1.52,0-1.69,1.86-1.69,4.39,0,9.12,14.52,14.52,22.46,14.52h.67c20.43,0,34.95-12.49,53.52-12.49,12.49,0,24.31,3.72,24.31,20.09,0,9.62-5.4,19.08-17.05,21.61-3.04-3.72-7.09-6.08-11.48-6.08-13,0-24.99,6.25-39.68,6.25-19.92,0-42.38-7.26-42.38-30.9,0-9.29,2.87-16.88,7.09-21.95-5.24-7.43-7.77-16.04-7.77-24.65ZM862.65,94.05c8.78,0,11.82-19.92,11.82-43.22v-3.88c0-5.91-2.2-12.49-9.12-12.49-5.74,0-8.1,6.59-8.1,11.48,0,.84,0,1.69.17,2.36,1.18,6.08,2.53,11.48,2.53,20.77,0,4.56-.51,10.64-1.69,15.03-.51,2.03-1.18,3.88-1.18,5.91,0,2.87,3.04,4.05,5.57,4.05Z"/>
  <path d="M952.48,55.72c2.03-5.4,3.88-11.99,3.88-19.08v-1.69c-15.37,0-15.54-.17-15.54-.17-.51-.51-.67-1.01-.67-1.86,0-1.18.34-1.69.84-2.36h15.7c0-3.88-1.01-9.79-2.7-13.68-.67-1.52-4.56-9.62-5.91-11.82-.34-.67-1.18-2.36-1.18-3.55,0-.68.17-1.01,1.01-1.01,1.86,0,3.71-.17,5.57-.17s3.72.17,5.74.67c4.56,1.35,9.62,4.9,12.66,10.47,3.38,5.91,7.09,16.21,8.1,19.08h13c.51.17,1.01.34,1.01,1.69s-.51,2.36-1.01,2.7h-12.16c0,.51.34,7.26.34,9.12,0,7.43-.51,17.05-.51,25.16,0,6.92.34,13.34,1.69,17.39,1.69,5.06,2.7,10.3,2.7,15.19,0,11.14-4.9,20.6-19.92,20.6h-4.56c-4.89,0-8.61-.17-11.31-2.03-8.27-5.4-8.44-17.05-8.44-20.77s5.06-26,11.65-43.9Z"/>
  <path d="M992.33,97.76c0-6.76,4.22-9.79,8.61-9.79,1.52,0,3.04.51,4.56,1.18,12.49,6.42,15.53,25.33,32.25,25.33,5.74,0,11.31-3.21,11.31-9.62,0-5.4-5.4-10.47-10.47-11.99l-20.6-6.25c-7.26-2.2-15.37-6.92-19.92-12.83-3.21-4.05-4.22-9.96-4.22-15.03,0-19.92,17.39-29.38,34.95-29.38,7.94,0,18.57,1.52,24.65,7.26.84.67,4.9,4.73,5.91,5.74,4.56,4.9,6.76,5.91,12.83,8.78.51.34.67,1.18.67,2.03-.34,3.38-6.41,6.25-9.62,6.25-16.88,0-19.92-27.02-37.31-27.02-5.91,0-10.47,5.23-10.47,10.98s5.23,9.29,9.96,10.98l30.23,11.14c7.26,2.7,18.4,10.98,20.26,19.08.85,2.7,1.18,5.4,1.18,8.27,0,14.52-10.81,29.38-32.25,29.38h-9.79c-14.18,0-30.05-1.35-39-14.01-1.01-1.35-3.04-4.73-3.37-6.58-.34-1.35-.34-2.7-.34-3.88Z"/>
  <path d="M1083.85,97.76c0-6.76,4.22-9.79,8.61-9.79,1.52,0,3.04.51,4.56,1.18,12.49,6.42,15.53,25.33,32.25,25.33,5.74,0,11.31-3.21,11.31-9.62,0-5.4-5.4-10.47-10.47-11.99l-20.6-6.25c-7.26-2.2-15.37-6.92-19.92-12.83-3.21-4.05-4.22-9.96-4.22-15.03,0-19.92,17.39-29.38,34.95-29.38,7.94,0,18.57,1.52,24.65,7.26.84.67,4.9,4.73,5.91,5.74,4.56,4.9,6.76,5.91,12.83,8.78.51.34.67,1.18.67,2.03-.34,3.38-6.41,6.25-9.62,6.25-16.88,0-19.92-27.02-37.31-27.02-5.91,0-10.47,5.23-10.47,10.98s5.23,9.29,9.96,10.98l30.23,11.14c7.26,2.7,18.4,10.98,20.26,19.08.85,2.7,1.18,5.4,1.18,8.27,0,14.52-10.81,29.38-32.25,29.38h-9.79c-14.18,0-30.05-1.35-39-14.01-1.01-1.35-3.04-4.73-3.37-6.58-.34-1.35-.34-2.7-.34-3.88Z"/>
  <path d="M1219.77,29.55c26.51,0,43.39,25.33,43.39,49.81v1.01c-.51,27.02-20.26,41.54-43.22,41.54h-2.36c-23.13,0-42.21-14.18-42.21-41.37s15.37-50.99,44.41-50.99ZM1219.09,111.1c3.21,0,5.4-2.7,5.4-5.74.17-9.46-.17-17.56,2.2-24.65l.68-2.03c2.87-8.1,6.41-18.24,6.41-24.99-.17-8.27-4.9-20.43-14.69-20.43-3.72,0-8.78,4.05-8.1,7.77,2.03,9.79,3.21,13.34,3.21,24.14v.84c0,9.79-4.89,18.91-4.89,28.7,0,6.42,1.35,16.38,9.79,16.38Z"/>
  <path d="M1302,39.51c9.45-7.26,18.4-10.47,26.34-10.47,18.91,0,32.59,16.55,32.59,39.85v2.03c-.17,4.9-.85,9.79-1.01,14.86v.68c0,10.3,6.75,17.39,6.75,23.98,0,10.47-7.43,11.48-15.53,11.48h-6.25c-13,0-18.91-2.36-22.79-15.7-.68-2.53-1.01-5.4-1.01-8.44,0-15.2,9.96-34.78,9.96-49.3,0-7.26-4.05-13.34-12.16-13.34-2.87,0-14.86,5.4-14.86,7.6,3.55,6.25,5.57,15.2,5.57,23.98,0,5.07-.51,9.96-.51,14.86,0,7.43,2.2,12.16,2.2,19.59,0,13.34-4.39,21.11-18.91,21.11h-.84c-7.09,0-16.21,0-19.25-7.77-1.69-3.38-2.36-6.75-2.36-10.3,0-15.2,11.99-33.26,13.51-54.2v-2.53c0-8.95-4.73-15.53-12.83-16.55,0,0-.51,0-.51-.67,0-.17,0-1.01.68-1.01h20.6c2.36,0,4.39,2.2,5.74,3.72l4.9,6.58Z"/>
</svg>