<?xml version="1.0" encoding="UTF-8"?>
<svg id="Layer_1" xmlns="http://www.w3.org/2000/svg" viewBox="0 0 954.29 138.28">
  <defs>
    <style>
      .cls-1 {
        fill: #f8f4eb;
      }
    </style>
  </defs>
  <path class="cls-1" d="M0,.31h40.26l36.91,104.22h.42L114.7.31h39.21v137.98h-25.16l.63-118.27h-.42l-42.15,118.27h-20.97L23.7,20.02h-.42l.42,118.27H0V.31Z"/>
  <path class="cls-1" d="M171.35.31h25.16v76.54h.42L269.9.31h31.24l-61.23,63.12,65.01,74.86h-33.55l-49.07-58.71-25.79,25.16v33.55h-25.16V.31Z"/>
  <path class="cls-1" d="M313.91.31h58.3c32.29,0,49.07,13.84,49.07,36.07,0,15.73-7.55,26.84-22.23,29.57v.21c17.2,2.52,27.47,14.26,27.47,32.08,0,24.74-15.31,40.05-49.49,40.05h-63.12V.31ZM374.51,59.44c16.36,0,24.32-7.13,24.32-19.29s-7.97-20.13-26.84-20.13h-32.92v39.42h35.44ZM376.6,118.57c18.87,0,26-8.81,26-22.86,0-11.95-9.65-19.92-26.84-19.92h-36.7v42.78h37.54Z"/>
  <path class="cls-1" d="M597.11,3.76c-12.96,1.13-14.84,4.51-17.47,20.67l-14.47,92.06c-2.25,13.9-2.63,19.54,9.39,19.54l-.38,2.25h-37.01l.38-2.25c12.78,0,14.84-5.64,17.1-19.54l15.97-100.71-70.08,122.5h-4.51l-18.04-123.25-25.18,95.45c-4.13,15.78-2.44,25.55,8.46,25.55l-.38,2.25h-34.38l.38-2.25c10.33-.75,15.22-9.96,19.35-25.55l23.11-87.18c4.13-15.97-.94-18.04-9.21-19.54l.38-2.25h26.12l17.47,118.56L571.56,1.5h25.93l-.38,2.25Z"/>
  <path class="cls-1" d="M606.32,1.5h89.81l-3.19,26.12h-2.25c-4.7-18.79-8.08-20.86-28.37-20.86h-33.07l-12.21,57.68h26.3c16.16,0,18.98-4.89,24.05-16.91h2.25l-8.45,40.4h-2.26c-.38-10.9-.56-18.22-16.72-18.22h-26.3l-11.46,54.3c-1.31,6.01,0,9.02,5.64,9.02h28.56c20.29,0,24.61-2.07,39.46-24.24h2.25l-10.33,29.5h-92.63l.38-2.25c12.78,0,15.03-7.14,18.04-21.04l19.16-90.19c3.01-13.9,3.76-21.04-9.02-21.04l.38-2.25Z"/>
  <path class="cls-1" d="M678.29,138.28l.38-2.25c12.78,0,15.03-7.14,18.04-21.04l19.16-90.19c3.01-13.9,3.57-21.04-9.02-21.04l.38-2.25h49.6c36.26,0,57.12,19.73,57.12,52.8,0,45.09-33.44,83.99-82.29,83.99h-53.36ZM801.92,55.24c0-33.63-17.29-48.48-46.41-48.48h-17.66c-4.32,0-8.08,2.25-9.02,6.76l-22.92,107.47c-1.5,6.76,1.13,12.02,22.92,12.02,49.6,0,73.09-37.2,73.09-77.79Z"/>
  <path class="cls-1" d="M802.11,138.28l.38-2.25c12.78,0,15.03-7.14,18.04-21.04l19.16-90.19c3.01-13.9,3.76-21.04-9.02-21.04l.38-2.25h37.58l-.38,2.25c-12.78,0-15.03,7.14-18.04,21.04l-19.16,90.19c-3.01,13.9-3.76,21.04,9.02,21.04l-.38,2.25h-37.58Z"/>
  <path class="cls-1" d="M941.89,114.23c2.07,16.16,4.51,21.04,12.4,21.8l-.38,2.25h-36.07l.38-2.25c10.71-.75,15.22-4.7,13.53-17.85l-3.76-28.56h-47.91l-8.27,15.22c-12.21,22.17-16.35,30.44-2.63,31.19l-.38,2.25h-30.25l.38-2.25c7.33-.75,13.9-9.96,26.49-32.69L922.73,0h4.13l15.03,114.23ZM883.27,83.99h43.97l-8.45-64.63-35.51,64.63Z"/>
</svg>